# xmcd
#
# Track frame offsets:
#	150
#	23732
#	61287
#	161882
#	191977
#	216875
#
# Disc length: 3970 seconds
#
# Revision: 0
# Processed by: cddbd v1.5.2PL0 Copyright (c) Steve Scherf et al.
# Submitted via: audiograbber 1.83.01
#
DISCID=550f8006
DTITLE=Driftin - Flitzlicht
DYEAR=2007
DGENRE=Blues
TTITLE0=Face to Face
TTITLE1=Is it Jazz
TTITLE2=Trance Part 1 and 2
TTITLE3=Beck´s Tune
TTITLE4=End of a Dream
TTITLE5=Flitzlichter
EXTD=
EXTT0=
EXTT1=
EXTT2=
EXTT3=
EXTT4=
EXTT5=
PLAYORDER=
